<svg width="241" height="68" viewBox="0 0 241 68" fill="none" xmlns="http://www.w3.org/2000/svg">
<g clip-path="url(#clip0_311_1806)">
<g clip-path="url(#clip1_311_1806)">
<path d="M155.067 43.4343H81.7578V54.8582H155.067V43.4343Z" fill="#B9B9B9"/>
<path d="M169.357 55.8816H161.884V67.234H169.357V55.8816Z" fill="#FE0000"/>
<path d="M178.678 55.8816H171.486V67.234H178.678V55.8816Z" fill="#00FF01"/>
<path d="M188.932 55.8816H181.228V67.234H188.932V55.8816Z" fill="#00D2FF"/>
<path d="M24.1561 26.0229C21.9973 29.7139 18.3295 31.7765 13.7548 31.7765C5.94289 31.7765 0.981445 25.3764 0.981445 16.275C0.981445 7.17359 5.94289 0.771484 13.7548 0.771484C18.6744 0.771484 21.9535 2.74686 24.0265 6.39614L20.0119 8.88717C18.4571 6.43977 16.8605 5.27954 13.7548 5.27954C8.48839 5.27954 5.6399 9.52976 5.6399 16.273C5.6399 23.0162 8.48839 27.2665 13.7548 27.2665C16.9043 27.2665 18.8478 25.9793 20.4006 23.5319L24.1561 26.0229Z" fill="white"/>
<path d="M47.7893 31.3025H43.4298V29.0673C41.877 30.6163 39.6764 31.7745 37.2166 31.7745C33.5468 31.7745 29.3628 29.7119 29.3628 24.1725C29.3628 19.1488 33.2458 16.874 38.3827 16.874C40.4976 16.874 42.18 17.1754 43.4318 17.7327V16.0568C43.4318 13.6114 41.9209 12.237 39.1601 12.237C36.8299 12.237 35.0179 12.6654 33.2478 13.6531L31.5216 10.3033C33.6784 8.97248 36.0963 8.28625 39.2897 8.28625C44.3388 8.28625 47.7913 10.7337 47.7913 15.8446V31.3025H47.7893ZM43.4298 24.9044V21.6835C42.2219 21.0845 40.6671 20.6958 38.2511 20.6958C35.4046 20.6958 33.5907 21.983 33.5907 24.0456C33.5907 26.2808 35.0139 27.7802 37.9501 27.7802C40.3242 27.7802 42.3933 26.3204 43.4298 24.9044Z" fill="white"/>
<path d="M74.2747 20.3943C74.2747 28.1253 70.0448 31.7745 65.3405 31.7745C63.0521 31.7745 60.8953 30.5707 59.6435 29.1982V37.3119L55.2422 39.5907V8.76026H59.6435V10.9062C61.284 9.40286 63.1837 8.28625 65.5558 8.28625C70.4335 8.28625 74.2727 11.8086 74.2727 20.3943H74.2747ZM69.8295 20.5252C69.8295 14.855 68.0176 12.3659 64.7365 12.3659C62.6216 12.3659 60.7658 13.782 59.6016 15.2417V24.7298C60.5943 26.0606 62.6654 27.6949 64.9099 27.6949C68.1033 27.6949 69.8295 25.2911 69.8295 20.5252Z" fill="white"/>
<path d="M92.0414 26.8381L91.5231 30.7452C90.4447 31.3461 88.9318 31.7765 87.1637 31.7765C84.0122 31.7765 82.0707 29.8428 82.0707 25.8068V12.7963H78.8335V8.76026H82.0707V2.31848L86.4321 0V8.76026H92.0434V12.7963H86.4321V25.0333C86.4321 27.1395 87.1218 27.7405 88.7624 27.7405C89.9285 27.7405 91.2221 27.3121 92.0434 26.8381H92.0414Z" fill="white"/>
<path d="M104.46 3.0047C104.46 4.55168 103.166 5.83884 101.612 5.83884C100.057 5.83884 98.7212 4.55168 98.7212 3.0047C98.7212 1.45772 100.015 0.128906 101.612 0.128906C103.208 0.128906 104.46 1.41607 104.46 3.0047ZM103.812 31.3025H99.367V8.76025H103.812V31.3025Z" fill="white"/>
<path d="M130.778 19.9243C130.778 27.3954 126.375 31.7746 120.55 31.7746C114.726 31.7746 110.582 27.094 110.582 20.0513C110.582 12.6654 114.983 8.2843 120.68 8.2843C126.377 8.2843 130.778 12.8796 130.778 19.9223V19.9243ZM126.291 20.0532C126.291 15.4599 124.09 12.4949 120.506 12.4949C117.14 12.4949 115.069 15.4599 115.069 19.9243C115.069 24.8627 117.357 27.568 120.722 27.568C124.086 27.568 126.289 24.1745 126.289 20.0532H126.291Z" fill="white"/>
<path d="M155.535 31.3025H151.09V18.5499C151.09 13.9982 149.364 12.3679 146.43 12.3679C143.496 12.3679 141.769 14.4722 141.769 18.1215V31.3045H137.324V8.76026H141.769V10.9062C142.89 9.27592 145.134 8.28625 147.464 8.28625C152.731 8.28625 155.535 11.7213 155.535 18.3753V31.3005V31.3025Z" fill="white"/>
<path d="M186.596 31.3025H182.063V17.9072H168.168V31.3025H163.635V1.24548H168.168V13.3972H182.063V1.24548H186.596V31.3025Z" fill="white"/>
<path d="M212.902 31.3025H208.457V29.1566C207.335 30.7888 205.09 31.7765 202.76 31.7765C197.496 31.7765 194.689 28.3394 194.689 21.6835V8.76025H199.134V21.5129C199.134 26.0626 200.86 27.6949 203.795 27.6949C206.729 27.6949 208.455 25.5886 208.455 21.9413V8.76025H212.9V31.3025H212.902Z" fill="white"/>
<path d="M239.559 20.3943C239.559 28.1252 235.329 31.7745 230.625 31.7745C228.337 31.7745 226.18 30.5707 224.928 29.1982V31.3005H220.527V2.27485L224.928 0V10.9062C226.569 9.40285 228.468 8.28625 230.84 8.28625C235.718 8.28625 239.557 11.8086 239.557 20.3943H239.559ZM235.114 20.5252C235.114 14.855 233.302 12.3659 230.021 12.3659C227.906 12.3659 226.05 13.782 224.886 15.2417V24.7298C225.879 26.0606 227.95 27.6949 230.195 27.6949C233.388 27.6949 235.114 25.2911 235.114 20.5252Z" fill="white"/>
</g>
</g>
<defs>
<clipPath id="clip0_311_1806">
<rect width="240" height="67.234" fill="white" transform="translate(0.981445)"/>
</clipPath>
<clipPath id="clip1_311_1806">
<rect width="238.578" height="67.234" fill="white" transform="translate(0.981445)"/>
</clipPath>
</defs>
</svg>
