<svg width="1920" height="1920" viewBox="0 0 1920 1920" fill="none" xmlns="http://www.w3.org/2000/svg">
<rect opacity="0.5" width="1920" height="1920" fill="url(#paint0_linear_2901_346592)"/>
<path opacity="0.6" fill-rule="evenodd" clip-rule="evenodd" d="M1008 914.5C1008 924.441 999.941 932.5 990 932.5C980.059 932.5 972 924.441 972 914.5C972 904.559 980.059 896.5 990 896.5C999.941 896.5 1008 904.559 1008 914.5ZM931.012 939.961C933.388 936.408 938.612 936.408 940.988 939.961L967.539 979.678L985.246 956.676C987.647 953.556 992.353 953.556 994.754 956.676L1034.53 1008.34C1037.56 1012.29 1034.75 1018 1029.77 1018H981.929H950.229H890.071C885.275 1018 882.417 1012.65 885.083 1008.67L931.012 939.961Z" fill="#0D0E13"/>
<defs>
<linearGradient id="paint0_linear_2901_346592" x1="1920" y1="111.273" x2="100.001" y2="2015.57" gradientUnits="userSpaceOnUse">
<stop stop-color="#A4A3A8"/>
<stop offset="1" stop-color="#B1B0B5"/>
</linearGradient>
</defs>
</svg>
